<?xml version="1.0" encoding="utf-8"?>
<!-- Generator: Adobe Illustrator 17.1.0, SVG Export Plug-In . SVG Version: 6.00 Build 0)  -->
<!DOCTYPE svg PUBLIC "-//W3C//DTD SVG 1.1//EN" "http://www.w3.org/Graphics/SVG/1.1/DTD/svg11.dtd">
<svg version="1.1" id="Layer_1" xmlns="http://www.w3.org/2000/svg" xmlns:xlink="http://www.w3.org/1999/xlink" x="0px" y="0px"
	 viewBox="0 0 24 22" enable-background="new 0 0 24 22" xml:space="preserve">
<g>
	<defs>
		<rect id="SVGID_1_" width="24" height="22"/>
	</defs>
	<clipPath id="SVGID_2_">
		<use xlink:href="#SVGID_1_"  overflow="visible"/>
	</clipPath>
	<path clip-path="url(#SVGID_2_)" fill="#408EC2" d="M10,4C8.9,4,8,4.4,8,5v16c0,0.6,0.9,1,2,1c0.2,0,14-1,14-1V3L10,4z"/>
	<path clip-path="url(#SVGID_2_)" fill-rule="evenodd" clip-rule="evenodd" fill="#E6E6E6" d="M24,3l-5.1,0.4L12,7.7V3.9L10,4
		C8.9,4,8,4.4,8,5v4v6v6c0,0.6,0.9,1,2,1c0,0,0,0,0.1,0c0,0,0.1,0,0.1,0c0,0,0,0,0,0c0.3,0,1-0.1,1.8-0.1v-7.1l0.3,0l8.5,6.5
		C22.6,21.1,24,21,24,21v-2.3l-5.7-4.4L24,14V8l-4.1,0.3L24,6V3z"/>
	<path clip-path="url(#SVGID_2_)" fill-rule="evenodd" clip-rule="evenodd" fill="#D46557" d="M24,4.5V3l-2,0.1L12,9l-2,2v2l2.3-0.2
		l10.5,8.3C23.6,21,24,21,24,21v-1l-9.7-7.3L24,12v-2l-11.7,0.8L24,4.5z"/>
	<path clip-path="url(#SVGID_2_)" fill="#48A0DC" d="M10,0C9.7,0,0,1,0,1v18c0,0,9.7-1,10-1c1.1,0,2,0.4,2,1V1C12,0.4,11.1,0,10,0"
		/>
	<path clip-path="url(#SVGID_2_)" fill-rule="evenodd" clip-rule="evenodd" fill="#FFFFFF" d="M10,0H9v5.6L3,0.7C1.3,0.9,0,1,0,1
		v2.4l3.9,3.2L0,7v6l3.4-0.3L0,16.1V19c0,0,1.4-0.1,3.2-0.3L9,13v5h1c1.1,0,2,0.4,2,1v-7V6V1C12,0.4,11.1,0,10,0"/>
	<path clip-path="url(#SVGID_2_)" fill-rule="evenodd" clip-rule="evenodd" fill="#ED7161" d="M8,19v2c0,0.6,0.9,1,2,1v-4
		C8.9,18,8,18.4,8,19 M10,0L10,0l0,8.1L2,1H0v1l7.2,6.4L0,9v2l7.6-0.6L0,18v1h1l7-7l1.8-1.8l0.2,0V18c1.1,0,2,0.4,2,1v-9V8V1
		C12,0.4,11.1,0,10,0"/>
	<path clip-path="url(#SVGID_2_)" fill-rule="evenodd" clip-rule="evenodd" fill="#BA594C" d="M10,18c-0.1,0-0.9,0.1-2,0.2V19v2
		c0-0.6,0.9-1,2-1s2-0.4,2-1C12,18.4,11.1,18,10,18"/>
</g>
</svg>
