<?xml version="1.0" encoding="utf-8"?>
<!-- Generator: Adobe Illustrator 17.1.0, SVG Export Plug-In . SVG Version: 6.00 Build 0)  -->
<!DOCTYPE svg PUBLIC "-//W3C//DTD SVG 1.1//EN" "http://www.w3.org/Graphics/SVG/1.1/DTD/svg11.dtd">
<svg version="1.1" id="Layer_1" xmlns="http://www.w3.org/2000/svg" xmlns:xlink="http://www.w3.org/1999/xlink" x="0px" y="0px"
	 viewBox="0 0 18.2 18.2" enable-background="new 0 0 18.2 18.2" xml:space="preserve">
<g>
	<defs>
		<rect id="SVGID_1_" y="0" width="18.2" height="18.2"/>
	</defs>
	<clipPath id="SVGID_2_">
		<use xlink:href="#SVGID_1_"  overflow="visible"/>
	</clipPath>
	<path clip-path="url(#SVGID_2_)" fill-rule="evenodd" clip-rule="evenodd" fill="#88C057" d="M18.2,0C18.2,0,5-0.7,3.6,7.6
		C3.5,8.1,3.5,8.5,3.5,9c0,1.6,0.6,3.1,1.6,4.2c3,4.2-5.1,5-5.1,5s13.1,0.5,15.6-6.7c0.3-0.7,0.5-1.6,0.5-2.4c0-1.6-0.6-3.1-1.6-4.2
		C11.4,0.6,18.2,0,18.2,0 M13.4,9.3c0,0.3-0.2,0.5-0.5,0.5l-0.3,0.1c-0.1,0.2-0.2,0.5-0.3,0.7l0.2,0.3c0.2,0.2,0.2,0.5,0,0.7
		l-0.3,0.3c-0.2,0.2-0.5,0.2-0.7,0l-0.3-0.2c-0.2,0.1-0.4,0.2-0.7,0.3l-0.1,0.3c0,0.3-0.2,0.5-0.5,0.5H9.4c-0.3,0-0.5-0.2-0.5-0.5
		L8.8,12c-0.2-0.1-0.5-0.2-0.7-0.3l-0.3,0.2c-0.2,0.2-0.5,0.2-0.7,0l-0.3-0.3c-0.2-0.2-0.2-0.5,0-0.7L7,10.6
		c-0.1-0.2-0.2-0.4-0.3-0.7L6.4,9.8C6.2,9.8,6,9.6,6,9.3V8.9c0-0.3,0.2-0.5,0.5-0.5l0.3-0.1C6.8,8.1,6.9,7.8,7,7.6L6.9,7.3
		c-0.2-0.2-0.2-0.5,0-0.7l0.3-0.3c0.2-0.2,0.5-0.2,0.7,0l0.3,0.2c0.2-0.1,0.4-0.2,0.7-0.3L9,5.9c0-0.3,0.2-0.5,0.5-0.5h0.5
		c0.3,0,0.5,0.2,0.5,0.5l0.1,0.3c0.2,0.1,0.5,0.2,0.7,0.3l0.3-0.2c0.2-0.2,0.5-0.2,0.7,0l0.3,0.3c0.2,0.2,0.2,0.5,0,0.7l-0.2,0.3
		c0.1,0.2,0.2,0.4,0.3,0.7l0.3,0.1c0.3,0,0.5,0.2,0.5,0.5V9.3z"/>
	<path clip-path="url(#SVGID_2_)" fill="#88C057" d="M9.7,10.7c-0.9,0-1.6-0.7-1.6-1.6c0-0.9,0.7-1.6,1.6-1.6c0.9,0,1.6,0.7,1.6,1.6
		C11.2,10,10.5,10.7,9.7,10.7"/>
</g>
</svg>
