<svg xmlns="http://www.w3.org/2000/svg" xmlns:xlink="http://www.w3.org/1999/xlink" viewBox="0 0 18.2 18.2"><defs><path id="a" d="M0 0h18.2v18.2H0z"/></defs><clipPath id="b"><use xlink:href="#a" overflow="visible"/></clipPath><path clip-path="url(#b)" fill-rule="evenodd" clip-rule="evenodd" fill="#88C057" d="M18.2 0S5-.7 3.6 7.6c-.1.5-.1.9-.1 1.4 0 1.6.6 3.1 1.6 4.2 3 4.2-5.1 5-5.1 5s13.1.5 15.6-6.7c.3-.7.5-1.6.5-2.4 0-1.6-.6-3.1-1.6-4.2C11.4.6 18.2 0 18.2 0m-4.8 9.3c0 .3-.2.5-.5.5l-.3.1c-.1.2-.2.5-.3.7l.2.3c.2.2.2.5 0 .7l-.3.3c-.2.2-.5.2-.7 0l-.3-.2c-.2.1-.4.2-.7.3l-.1.3c0 .3-.2.5-.5.5h-.5c-.3 0-.5-.2-.5-.5l-.1-.3c-.2-.1-.5-.2-.7-.3l-.3.2c-.2.2-.5.2-.7 0l-.3-.3c-.2-.2-.2-.5 0-.7l.2-.3c-.1-.2-.2-.4-.3-.7l-.3-.1c-.2 0-.4-.2-.4-.5v-.4c0-.3.2-.5.5-.5l.3-.1c0-.2.1-.5.2-.7l-.1-.3c-.2-.2-.2-.5 0-.7l.3-.3c.2-.2.5-.2.7 0l.3.2c.2-.1.4-.2.7-.3l.1-.3c0-.3.2-.5.5-.5h.5c.3 0 .5.2.5.5l.1.3c.2.1.5.2.7.3l.3-.2c.2-.2.5-.2.7 0l.3.3c.2.2.2.5 0 .7l-.2.3c.1.2.2.4.3.7l.3.1c.3 0 .5.2.5.5v.4z"/><path clip-path="url(#b)" fill="#88C057" d="M9.7 10.7c-.9 0-1.6-.7-1.6-1.6 0-.9.7-1.6 1.6-1.6.9 0 1.6.7 1.6 1.6-.1.9-.8 1.6-1.6 1.6"/></svg>