<svg xmlns="http://www.w3.org/2000/svg" xmlns:xlink="http://www.w3.org/1999/xlink" viewBox="0 0 24 22"><defs><path id="a" d="M0 0h24v22H0z"/></defs><clipPath id="b"><use xlink:href="#a" overflow="visible"/></clipPath><path clip-path="url(#b)" fill="#408EC2" d="M10 4c-1.1 0-2 .4-2 1v16c0 .6.9 1 2 1 .2 0 14-1 14-1V3L10 4z"/><path clip-path="url(#b)" fill-rule="evenodd" clip-rule="evenodd" fill="#E6E6E6" d="M24 3l-5.1.4L12 7.7V3.9L10 4c-1.1 0-2 .4-2 1v16c0 .6.9 1 2 1h.2c.3 0 1-.1 1.8-.1v-7.1h.3l8.5 6.5c1.8-.2 3.2-.3 3.2-.3v-2.3l-5.7-4.4L24 14V8l-4.1.3L24 6V3z"/><path clip-path="url(#b)" fill-rule="evenodd" clip-rule="evenodd" fill="#D46557" d="M24 4.5V3l-2 .1L12 9l-2 2v2l2.3-.2 10.5 8.3c.8-.1 1.2-.1 1.2-.1v-1l-9.7-7.3L24 12v-2l-11.7.8L24 4.5z"/><path clip-path="url(#b)" fill="#48A0DC" d="M10 0C9.7 0 0 1 0 1v18s9.7-1 10-1c1.1 0 2 .4 2 1V1c0-.6-.9-1-2-1"/><path clip-path="url(#b)" fill-rule="evenodd" clip-rule="evenodd" fill="#FFF" d="M10 0H9v5.6L3 .7C1.3.9 0 1 0 1v2.4l3.9 3.2L0 7v6l3.4-.3L0 16.1V19s1.4-.1 3.2-.3L9 13v5h1c1.1 0 2 .4 2 1V1c0-.6-.9-1-2-1"/><path clip-path="url(#b)" fill-rule="evenodd" clip-rule="evenodd" fill="#ED7161" d="M8 19v2c0 .6.9 1 2 1v-4c-1.1 0-2 .4-2 1m2-19v8.1L2 1H0v1l7.2 6.4L0 9v2l7.6-.6L0 18v1h1l7-7 1.8-1.8h.2V18c1.1 0 2 .4 2 1V1c0-.6-.9-1-2-1"/><path clip-path="url(#b)" fill-rule="evenodd" clip-rule="evenodd" fill="#BA594C" d="M10 18c-.1 0-.9.1-2 .2V21c0-.6.9-1 2-1s2-.4 2-1-.9-1-2-1"/></svg>